<svg xmlns="http://www.w3.org/2000/svg" id="Calque_2" viewBox="0 0 459.52 153.36"><defs><style>.cls-1{fill:none;stroke:#ff00ed;stroke-width:2px}</style></defs><g id="Calque_1-2" data-name="Calque_1"><path d="M56.24 76.42v38.03H43.88v34.33H1V57.09c0-17.75 4.84-31.53 14.52-41.35C25.2 5.91 38.81 1 56.35 1s29.4 4.45 37.5 13.36Q106 27.725 106 55.61v93.16H63.12V58.46c0-5.63-.67-9.54-2.01-11.72s-3.73-3.27-7.18-3.27c-6.69 0-10.03 5-10.03 15v17.96h12.36Z" class="cls-1"/><path d="M64.02 148.77V44.83c0-12.89 3.91-23.41 11.72-31.58C83.56 5.08 93.7 1 106.16 1c14.79 0 26.16 6.8 34.12 20.39q7.29-10.98 15.63-15.69c5.56-3.13 12.43-4.7 20.6-4.7 12.96 0 22.88 4.08 29.79 12.25q10.35 12.255 10.35 35.28v100.24h-42.88v-93.8q0-6.975-1.11-9.24c-.74-1.51-2.24-2.27-4.49-2.27-4.23 0-6.34 3.59-6.34 10.77v94.54h-42.88v-93.8c0-4.58-.39-7.64-1.16-9.19-.78-1.55-2.29-2.32-4.54-2.32-4.23 0-6.34 3.84-6.34 11.51v93.8H64.03Z" class="cls-1"/><path d="M249.97 1c20.42 0 37.94 7.43 52.55 22.29s21.92 32.64 21.92 53.34-7.36 38.94-22.08 53.66-32.6 22.08-53.66 22.08-38.76-7.39-53.55-22.18-22.18-32.64-22.18-53.55 7.45-39.01 22.34-53.66 33.11-21.97 54.66-21.97Zm-1.27 42.46q-13.2 0-22.5 9.72c-6.2 6.48-9.29 14.3-9.29 23.45s3.12 16.97 9.35 23.45 13.71 9.72 22.45 9.72 16.39-3.22 22.55-9.66 9.24-14.28 9.24-23.5-3.08-17.06-9.24-23.5-13.68-9.66-22.55-9.66Z" class="cls-1"/><path d="M384.77 4.59v93.23c0 16.43-4.9 29.57-14.7 39.4s-22.84 14.75-39.14 14.75-28.64-4.77-37.24-14.33q-12.9-14.325-12.9-41.19V4.59h42.77v91.76c0 8.78 3.12 13.17 9.38 13.17s9.06-4.39 9.06-13.17V4.59z" class="cls-1"/><path d="M385.88 43.36v105.41H343V4.59h55.03c16.76 0 29.75 4.16 38.98 12.46 10.28 9.3 15.42 21.09 15.42 35.38s-6.37 26.87-19.12 36.86l24.72 59.47h-45l-20.81-46.48V65.21h3.38c9.01 0 13.52-3.87 13.52-11.62 0-6.83-5.21-10.25-15.63-10.25h-7.61Z" class="cls-1"/></g></svg>