<svg xmlns="http://www.w3.org/2000/svg" id="Calque_2" data-name="Calque 2" viewBox="0 0 667.56 623.23"><defs><style>.cls-1{fill:#bb1d25}</style></defs><g id="Calque_1-2" data-name="Calque 1"><path d="M537.38 24.52c56.78 43.95 96.98 102.07 117.12 171.39 7.37 25.36 15.11 65.47 12.55 91.55-.11 1.1.01 2.27-1.02 3.01l-235.39-.7c-2.87-.94-1.31-9.15-1.72-12.28-3.63-27.54-19.71-52.94-42.59-68.4-1.6-1.08-3.42-1.75-5.26-2.26L497.95 1.36c.45-.58 1.02-1.14 1.75-1.33 2.67-.68 18.35 10.66 21.75 12.94 5.5 3.69 10.5 7.34 15.94 11.55ZM0 288.91C-.67 181.01 53.8 77.48 141.69 16.09 145.46 13.46 164.37.35 167.37.82l117.52 203.77c.16 1.87-12.43 9.67-14.89 11.8-20.44 17.67-32.74 45.51-32.99 72.51H0Zm407.71 125.28c28.92 48.44 56.11 95.83 83.49 145.02 1.96 3.52 9.61 16.81 8.34 19.66s-16.37 8.93-20.24 10.83c-88.08 43.33-193.52 44.63-283.67 4.08-4.26-1.91-27.96-13.38-29.19-15.9-.86-1.12.08-1.68.46-2.52 4.13-8.98 12.02-19.99 17.11-28.95 8.98-15.79 18.38-31.57 27.58-47.51 5.25-9.1 11.47-19.24 16.8-29.11 9.94-18.39 22.01-38.24 32.59-56.63 6.31-10.97 12.41-22.61 18.87-32.87 1.65-2.61 2.21-5.95 5.11-7.89 7.8 2.65 14.93 6.89 23.01 9.02 18.46 4.88 36.11 4.36 54.29-.77 3.89-1.1 18.25-8.26 20.07-7.67 8.59 12.53 15.18 26.25 22.81 39.31.6 1.02 2.21 1.31 2.56 1.89Z" class="cls-1"/><circle cx="333.48" cy="289.16" r="64.75" class="cls-1"/></g></svg>